<svg id="Contract" xmlns="http://www.w3.org/2000/svg" width="86" height="85" viewBox="0 0 86 85">
  <g id="Group_16" data-name="Group 16" transform="translate(0 0.004)">
    <g id="Rectangle_9" data-name="Rectangle 9" transform="translate(0 -0.004)" fill="#fa4d56" stroke="#fa4d56" stroke-width="2">
      <rect width="86" height="85" rx="42.5" stroke="none"/>
      <rect x="1" y="1" width="84" height="83" rx="41.5" fill="none"/>
    </g>
  </g>
  <g id="_006-contract" data-name="006-contract" transform="translate(30.298 25.979)">
    <path id="Path_38" data-name="Path 38" d="M210.77,97.177a1.563,1.563,0,0,0-2.865-.375l-.26.453a.521.521,0,0,0-.708.188L205.614,99.7l-.453-.26a.52.52,0,1,0-.521.9l.453.26-4.427,7.672-1.094,2.922-.521.974a1.563,1.563,0,0,0,.083,1.688l-1.172,1.437-.328-.823a1.042,1.042,0,0,0-1.86-.146l-.187.318-.177-2.083a1.042,1.042,0,0,0-2.026-.245l-1.281,3.844a.521.521,0,0,0,.328.656.451.451,0,0,0,.161.041.521.521,0,0,0,.495-.354l1.276-3.844.182,2.114a1.042,1.042,0,0,0,1.932.448l.193-.318.323.818a1.042,1.042,0,0,0,1.781.266l1.214-1.536a1.6,1.6,0,0,0,.411.052,1.563,1.563,0,0,0,1.359-.771l.521-.87,1.984-2.411,4.474-7.766.453.26a.522.522,0,0,1,.193.714l-2.083,3.61a.517.517,0,1,0,.88.542l2.083-3.61a1.562,1.562,0,0,0-.573-2.136l-.453-.26,1.3-2.255a.521.521,0,0,0-.187-.708l.26-.453A1.562,1.562,0,0,0,210.77,97.177Zm-1.964.146a.521.521,0,0,1,.318-.245.547.547,0,0,1,.4.052.521.521,0,0,1,.245.318.547.547,0,0,1-.052.4l-.26.453-.906-.521Zm-7.1,14.542-.26-.151-.771-.448.74-1.979,1.641.948Zm-1.563,1.505a.521.521,0,0,1-.156-.682l.26-.453.906.521-.26.448a.521.521,0,0,1-.75.167Zm3.505-3.99-1.8-1.042,4.167-7.219,1.8,1.042Zm4.688-8.12-1.8-1.042,1.042-1.8,1.8,1.042Zm0,0" transform="translate(-179.571 -89.77)" fill="#fff"/>
    <path id="Path_39" data-name="Path 39" d="M71.149,356.721l-1.844,1.839-1.1-1.1a.521.521,0,1,0-.734.74l1.1,1.1a1.05,1.05,0,0,0,1.474,0l1.839-1.844a.521.521,0,0,0-.734-.734Zm0,0" transform="translate(-62.93 -333.382)" fill="#fff"/>
    <path id="Path_40" data-name="Path 40" d="M32,316.468a4.427,4.427,0,1,0,8.854,0,.521.521,0,0,0-1.042,0,3.386,3.386,0,1,1-1.354-2.708.521.521,0,0,0,.625-.833A4.427,4.427,0,0,0,32,316.468Zm0,0" transform="translate(-29.917 -291.728)" fill="#fff"/>
    <path id="Path_41" data-name="Path 41" d="M86.063,49.081a.521.521,0,1,0,0-1.042H72.521A.521.521,0,0,0,72,48.56v2.083a.521.521,0,0,0,.521.521H86.063a.521.521,0,1,0,0-1.042H73.042V49.081Zm0,0" transform="translate(-67.312 -44.914)" fill="#fff"/>
    <path id="Path_42" data-name="Path 42" d="M96.521,112.039a.521.521,0,1,0,0,1.042h10.417a.521.521,0,0,0,0-1.042Zm0,0" transform="translate(-89.75 -104.747)" fill="#fff"/>
    <path id="Path_43" data-name="Path 43" d="M139.98,168.039H128.521a.521.521,0,0,0,0,1.042H139.98a.521.521,0,0,0,0-1.042Zm0,0" transform="translate(-119.666 -157.101)" fill="#fff"/>
    <path id="Path_44" data-name="Path 44" d="M67.459,216.56a.521.521,0,0,0-.521-.521H56.521a.521.521,0,0,0,0,1.042H66.938A.521.521,0,0,0,67.459,216.56Zm0,0" transform="translate(-52.354 -201.976)" fill="#fff"/>
    <path id="Path_45" data-name="Path 45" d="M252.167,216.039h-3.646a.521.521,0,0,0,0,1.042h3.646a.521.521,0,0,0,0-1.042Zm0,0" transform="translate(-231.854 -201.976)" fill="#fff"/>
    <path id="Path_46" data-name="Path 46" d="M61.729,257.081a.521.521,0,0,0,0-1.042H56.521a.521.521,0,0,0,0,1.042Zm0,0" transform="translate(-52.354 -239.372)" fill="#fff"/>
    <path id="Path_47" data-name="Path 47" d="M168.521,257.081h3.646a.521.521,0,0,0,0-1.042h-3.646a.521.521,0,1,0,0,1.042Zm0,0" transform="translate(-157.062 -239.372)" fill="#fff"/>
    <path id="Path_48" data-name="Path 48" d="M23.438,24a.521.521,0,0,0-.521.521v5.209a.521.521,0,0,1-.521.521H1.563a.521.521,0,0,1-.521-.521V1.6a.521.521,0,0,1,.521-.521H22.4a.521.521,0,0,1,.521.521v9.782a.521.521,0,1,0,1.042,0V1.6A1.563,1.563,0,0,0,22.4.039H1.563A1.563,1.563,0,0,0,0,1.6V29.728A1.562,1.562,0,0,0,1.563,31.29H22.4a1.562,1.562,0,0,0,1.563-1.563V24.519A.521.521,0,0,0,23.438,24Zm0,0" transform="translate(0 -0.039)" fill="#fff"/>
  </g>
</svg>
