<svg xmlns="http://www.w3.org/2000/svg" width="86" height="85" viewBox="0 0 86 85">
  <g id="Group_170" data-name="Group 170" transform="translate(-430 -170)">
    <g id="Infrastucture" transform="translate(430 170)">
      <g id="Group_97" data-name="Group 97" transform="translate(0 0.004)">
        <path id="Path_90" data-name="Path 90" d="M42.5,0h1a42.5,42.5,0,0,1,0,85h-1a42.5,42.5,0,0,1,0-85Z" transform="translate(0 -0.004)" fill="#fa4d56"/>
      </g>
      <g id="_006-cloud" data-name="006-cloud" transform="translate(23.625 22.492)">
        <path id="Path_76" data-name="Path 76" d="M36.745,4.666A2.141,2.141,0,0,0,34.606,6.8v5.8a1.223,1.223,0,0,1-1.222,1.222H30.872a4.272,4.272,0,0,0-5.934-6.147,4.853,4.853,0,0,0-5.551-1.457,4.3,4.3,0,0,0-3.723-2.172A4.242,4.242,0,0,0,14.55,4.2,5.5,5.5,0,0,0,4.1,7.159a3.664,3.664,0,0,0,.569,7.283H24.49A6.758,6.758,0,0,0,21.7,16.8a3.052,3.052,0,0,0-2.367-1.14H7.11A3.059,3.059,0,0,0,4.055,18.72V35.828A3.059,3.059,0,0,0,7.11,38.883h12.22a3.059,3.059,0,0,0,3.055-3.055V27a3.035,3.035,0,0,0,1.221.259h0v9.176a2.434,2.434,0,0,0,4.277,1.6,2.434,2.434,0,0,0,4.277-1.6V19.994a.916.916,0,0,1,.752-.9l1.955-.356a4.885,4.885,0,0,0,4.014-4.809V6.8a2.141,2.141,0,0,0-2.139-2.139ZM28.459,18.5l-.574.574-.574-.574.493-3.45h.162ZM27.885,7.721a3.055,3.055,0,1,1-3.055,3.055A3.059,3.059,0,0,1,27.885,7.721ZM2.222,10.776a2.444,2.444,0,1,1,4.888,0H8.332a3.67,3.67,0,0,0-3-3.6,4.273,4.273,0,0,1,8.279-2.01l.21.639.616-.269a3.025,3.025,0,0,1,1.223-.257,3.074,3.074,0,0,1,2.649,1.535,4.882,4.882,0,0,0-2.038,3.964H17.5a3.661,3.661,0,0,1,6.664-2.1,4.251,4.251,0,0,0,.218,4.542H4.666A2.447,2.447,0,0,1,2.222,10.776ZM20.554,24.219a3.02,3.02,0,0,0,.61,1.8v4.306H5.277v-6.11ZM7.11,16.887h12.22a1.832,1.832,0,0,1,1.705,1.176,6.685,6.685,0,0,0-.483,2.49V23H5.277V18.72A1.835,1.835,0,0,1,7.11,16.887Zm12.22,20.775H7.11a1.835,1.835,0,0,1-1.833-1.833V31.551H21.164v4.277A1.835,1.835,0,0,1,19.331,37.661ZM37.661,13.928a3.664,3.664,0,0,1-3.011,3.607L32.7,17.89a2.137,2.137,0,0,0-1.756,2.1V36.439a1.222,1.222,0,0,1-2.444,0V24.83H27.274V36.439a1.222,1.222,0,1,1-2.444,0V18.72H23.608v7.321a1.834,1.834,0,0,1-1.833-1.833V20.553A5.5,5.5,0,0,1,26.562,15.1l-.547,3.83,1.87,1.87,1.87-1.87L29.2,15.053h4.184a2.447,2.447,0,0,0,2.444-2.444V6.8a.917.917,0,0,1,1.833,0Z" fill="#fff"/>
        <path id="Path_77" data-name="Path 77" d="M11.833,32.666A1.833,1.833,0,1,0,10,30.833,1.835,1.835,0,0,0,11.833,32.666Zm0-2.444a.611.611,0,1,1-.611.611A.612.612,0,0,1,11.833,30.222Z" transform="translate(-3.501 -10.891)" fill="#fff"/>
        <path id="Path_78" data-name="Path 78" d="M30,29h1.222v3.666H30Z" transform="translate(-11.28 -10.891)" fill="#fff"/>
        <path id="Path_79" data-name="Path 79" d="M26,29h1.222v3.666H26Z" transform="translate(-9.724 -10.891)" fill="#fff"/>
        <path id="Path_80" data-name="Path 80" d="M22,29h1.222v3.666H22Z" transform="translate(-8.169 -10.891)" fill="#fff"/>
        <path id="Path_81" data-name="Path 81" d="M27.833,44.666A1.833,1.833,0,1,0,26,42.833,1.835,1.835,0,0,0,27.833,44.666Zm0-2.444a.611.611,0,1,1-.611.611A.611.611,0,0,1,27.833,42.222Z" transform="translate(-9.724 -15.559)" fill="#fff"/>
        <path id="Path_82" data-name="Path 82" d="M10,41h1.222v3.666H10Z" transform="translate(-3.501 -15.559)" fill="#fff"/>
        <path id="Path_83" data-name="Path 83" d="M14,41h1.222v3.666H14Z" transform="translate(-5.057 -15.559)" fill="#fff"/>
        <path id="Path_84" data-name="Path 84" d="M18,41h1.222v3.666H18Z" transform="translate(-6.613 -15.559)" fill="#fff"/>
        <path id="Path_85" data-name="Path 85" d="M11.833,53a1.833,1.833,0,1,0,1.833,1.833A1.835,1.835,0,0,0,11.833,53Zm0,2.444a.611.611,0,1,1,.611-.611A.611.611,0,0,1,11.833,55.444Z" transform="translate(-3.501 -20.227)" fill="#fff"/>
        <path id="Path_86" data-name="Path 86" d="M30,53h1.222v3.666H30Z" transform="translate(-11.28 -20.227)" fill="#fff"/>
        <path id="Path_87" data-name="Path 87" d="M26,53h1.222v3.666H26Z" transform="translate(-9.724 -20.227)" fill="#fff"/>
        <path id="Path_88" data-name="Path 88" d="M22,53h1.222v3.666H22Z" transform="translate(-8.169 -20.227)" fill="#fff"/>
      </g>
    </g>
  </g>
</svg>
