<svg id="People_Culture" data-name="People, Culture" xmlns="http://www.w3.org/2000/svg" width="86" height="85" viewBox="0 0 86 85">
  <g id="Group_89" data-name="Group 89" transform="translate(0 0.004)">
    <g id="Rectangle_9" data-name="Rectangle 9" transform="translate(0 -0.004)" fill="#fa4d56" stroke="#fa4d56" stroke-width="2">
      <rect width="86" height="85" rx="42.5" stroke="none"/>
      <rect x="1" y="1" width="84" height="83" rx="41.5" fill="none"/>
    </g>
  </g>
  <g id="_002-competence" data-name="002-competence" transform="translate(23.696 25.415)">
    <path id="Path_56" data-name="Path 56" d="M35.31,23.023h-1.2A1.809,1.809,0,0,0,32.3,24.83v.23l-.226.113a1.769,1.769,0,0,0-.46,2.833l.687.687v5.391a.323.323,0,0,1-.372.319l-.341-.052a4.029,4.029,0,0,0-1.442-1.834c-.533-.447-.857-.742-.857-1.062a7.3,7.3,0,0,1,.283-1.962,8.409,8.409,0,0,0,.319-2.255,5.2,5.2,0,0,0-1.2-3.24v-.073a6.927,6.927,0,0,0-13.854,0v4.139a3.668,3.668,0,0,0-1.807,3.391,4.06,4.06,0,0,0,1.1,2.65l-1.93.3a.323.323,0,0,1-.372-.319V28.693l.687-.687a1.769,1.769,0,0,0-.461-2.833l-.226-.113v-.23a1.809,1.809,0,0,0-1.807-1.807h-1.2A1.809,1.809,0,0,0,7,24.83v9.882a4.373,4.373,0,0,0,4.917,4.34l2.914-.364v6.019H29.286V38.689l2.914.364a4.374,4.374,0,0,0,4.917-4.34V24.83a1.809,1.809,0,0,0-1.807-1.807Zm-2.7,3.228L33.5,25.8V24.83a.6.6,0,0,1,.6-.6h1.2a.6.6,0,0,1,.6.6v3.012H33.15l-.687-.687a.565.565,0,0,1,.148-.9ZM15.623,29.016l.412-.137V23.927a5.722,5.722,0,1,1,11.444,0v.551l.176.176a3.98,3.98,0,0,1,1.028,2.586A7.3,7.3,0,0,1,28.4,29.2a8.409,8.409,0,0,0-.319,2.255,2.714,2.714,0,0,0,1.288,1.985,6.18,6.18,0,0,1,.732.682l-5.031-.774V32.2a4.81,4.81,0,0,0,1.807-3.756V23.626h-3.25a6.548,6.548,0,0,1-3.645-1.1l-.334-.223L17.24,23.906v4.539A4.818,4.818,0,0,0,19.633,32.6a1.584,1.584,0,0,1-.335.952l-.388.426.407.407a2.282,2.282,0,0,1,.933,1.874l-.039.5a4.131,4.131,0,0,1-2.1,2.889,6.73,6.73,0,0,0-1.429-1.563c-.252-.222-.468-.419-.651-.607h0a1.7,1.7,0,0,1-.6-1.2,2.515,2.515,0,0,1,.145-.867,12.947,12.947,0,0,0,2.656,1.431l.423-1.128c-1.232-.461-4.428-2.126-4.428-4.254A2.426,2.426,0,0,1,15.623,29.016Zm6.435,3.042a3.618,3.618,0,0,1-3.614-3.614V24.55l1.214-.81a7.747,7.747,0,0,0,3.969,1.09h2.045v3.614A3.618,3.618,0,0,1,22.058,32.058Zm0,1.2a4.786,4.786,0,0,0,1.807-.355v.708l-2.056,2.056h-.4a3.166,3.166,0,0,0-.891-1.78,2.807,2.807,0,0,0,.264-.807,4.805,4.805,0,0,0,1.276.177Zm-.646,3.614h.4l.609.609.764,6.017H20.9L21.41,36.9c0-.007,0-.013,0-.019Zm1.5-.6,1.768-1.768.1.015-.658,2.96ZM8.807,24.228h1.2a.6.6,0,0,1,.6.6V25.8l.892.446a.565.565,0,0,1,.148.9l-.687.687H8.2V24.83A.6.6,0,0,1,8.807,24.228Zm2.96,13.63A3.169,3.169,0,0,1,8.2,34.712V29.047h2.409v5.038a1.518,1.518,0,0,0,.448,1.08,1.534,1.534,0,0,0,1.312.429l1.98-.3a3.814,3.814,0,0,0-.126.985,2.507,2.507,0,0,0,.326,1.239Zm4.268,1.264a3.867,3.867,0,0,1,1.236,1.559l.219.659.621-.311A6.947,6.947,0,0,0,19.986,39.7L19.694,43.5H16.035Zm18.949-2.168a3.148,3.148,0,0,1-2.635.9l-2.988-.373-1.279,0V43.5H24.4l-.587-4.626,1.009,1.009,1.151-5.18,5.775.888a1.537,1.537,0,0,0,1.312-.429,1.518,1.518,0,0,0,.448-1.08V29.047h2.409v5.666a3.152,3.152,0,0,1-.928,2.241Z" transform="translate(-3.386 -7.363)" fill="#fff"/>
    <path id="Path_57" data-name="Path 57" d="M29.216,9.433A4.216,4.216,0,1,0,25,5.216,4.221,4.221,0,0,0,29.216,9.433Zm0-7.228A3.012,3.012,0,1,1,26.2,5.216,3.015,3.015,0,0,1,29.216,2.2Z" transform="translate(-10.544 -1)" fill="#fff"/>
    <path id="Path_58" data-name="Path 58" d="M32.759,6.145l-.852-.852L29.924,7.276,29.145,6.5l-.852.852L29.924,8.98Z" transform="translate(-11.853 -2.707)" fill="#fff"/>
    <path id="Path_59" data-name="Path 59" d="M6.421,15.457A2.412,2.412,0,0,0,8.83,13.047V11.968a1.175,1.175,0,0,1,.519-.987,5.422,5.422,0,1,0-5.844.008,1.186,1.186,0,0,1,.506,1v1.054A2.412,2.412,0,0,0,6.421,15.457Zm0-1.2a1.206,1.206,0,0,1-1.2-1.2H7.626A1.206,1.206,0,0,1,6.421,14.252Zm-.6-7.83a.6.6,0,1,1,.6.6A.6.6,0,0,1,5.819,6.422ZM2.241,5.864A4.232,4.232,0,0,1,5.927,2.233a4.5,4.5,0,0,1,.5-.028,4.17,4.17,0,0,1,2.8,1.071A4.214,4.214,0,0,1,8.7,9.967a2.346,2.346,0,0,0-1.065,1.875h-.61V8.118a1.807,1.807,0,1,0-1.2,0v3.725H5.207A2.345,2.345,0,0,0,4.154,9.974,4.2,4.2,0,0,1,2.241,5.864Z" transform="translate(-1 -1.001)" fill="#fff"/>
    <path id="Path_60" data-name="Path 60" d="M54.251,5.987l-1.479-.493.7-1.394L51.152,1.782l-1.394.7L49.265,1H45.987l-.493,1.479-1.394-.7L41.782,4.1l.7,1.394L41,5.987V9.264l1.479.493-.7,1.394L44.1,13.469l1.394-.7.493,1.48h3.277l.493-1.479,1.394.7,2.318-2.318-.7-1.394,1.479-.493ZM53.047,8.4l-1.382.461-.1.266c-.03.077-.06.154-.093.228l-.117.261.651,1.3L50.914,12l-1.3-.651-.261.117c-.074.033-.149.063-.226.092l-.268.1L48.4,13.047H46.855l-.461-1.384-.268-.1c-.076-.029-.152-.059-.226-.092l-.261-.117-1.3.651-1.09-1.09.651-1.3-.117-.261c-.034-.075-.063-.151-.093-.228l-.1-.266L42.2,8.4V6.855l1.382-.461.1-.266c.03-.077.06-.154.093-.228l.117-.261-.651-1.3,1.09-1.09,1.3.651.261-.117c.074-.033.149-.063.226-.092l.268-.1L46.855,2.2H48.4l.461,1.384.268.1c.076.029.152.059.226.092l.261.117,1.3-.651L52,4.338l-.651,1.3.117.261c.034.075.063.151.093.228l.1.266,1.381.461Z" transform="translate(-16.906 -1)" fill="#fff"/>
    <path id="Path_61" data-name="Path 61" d="M50.012,7a3.012,3.012,0,1,0,3.012,3.012A3.015,3.015,0,0,0,50.012,7Zm0,4.819a1.807,1.807,0,1,1,1.807-1.807A1.809,1.809,0,0,1,50.012,11.819Z" transform="translate(-19.292 -3.386)" fill="#fff"/>
  </g>
</svg>
