<svg xmlns="http://www.w3.org/2000/svg" width="612" height="84" viewBox="0 0 612 84">
  <g id="Group_142" data-name="Group 142" transform="translate(-1047 -859)">
    <rect id="Rectangle_8" data-name="Rectangle 8" width="612" height="84" rx="42" transform="translate(1047 859)" fill="#e8e7e7"/>
    <text id="Infrastructure_Facilities" data-name="Infrastructure &amp; Facilities" transform="translate(1143 913)" fill="#393939" font-size="30" font-family="HelveticaNeue, Helvetica Neue"><tspan x="0" y="0">Infrastructure &amp; Facilities</tspan></text>
    <g id="_006-cloud" data-name="006-cloud" transform="translate(1077.625 880.467)">
      <path id="Path_76" data-name="Path 76" d="M38.06,4.8a2.22,2.22,0,0,0-2.217,2.217v6.018A1.268,1.268,0,0,1,34.575,14.3h-2.6A4.429,4.429,0,0,0,25.819,7.93a5.031,5.031,0,0,0-5.755-1.51A4.461,4.461,0,0,0,16.2,4.167a4.4,4.4,0,0,0-1.155.153A5.7,5.7,0,0,0,4.211,7.386a3.8,3.8,0,0,0,.59,7.551H25.354a7.007,7.007,0,0,0-2.9,2.449A3.164,3.164,0,0,0,20,16.2H7.335a3.171,3.171,0,0,0-3.167,3.167V37.109a3.171,3.171,0,0,0,3.167,3.167H20a3.171,3.171,0,0,0,3.167-3.167V27.96a3.147,3.147,0,0,0,1.266.269h0v9.514A2.523,2.523,0,0,0,28.874,39.4a2.523,2.523,0,0,0,4.434-1.658V20.693a.95.95,0,0,1,.78-.935l2.027-.369A5.064,5.064,0,0,0,40.277,14.4V7.018A2.22,2.22,0,0,0,38.06,4.8ZM29.469,19.147l-.595.6-.595-.595.511-3.577h.168ZM28.874,7.968a3.167,3.167,0,1,1-3.167,3.167A3.171,3.171,0,0,1,28.874,7.968ZM2.267,11.136a2.534,2.534,0,1,1,5.068,0H8.6A3.806,3.806,0,0,0,5.5,7.4,4.43,4.43,0,0,1,14.08,5.318l.218.662.639-.279A3.136,3.136,0,0,1,16.2,5.434a3.187,3.187,0,0,1,2.747,1.592,5.061,5.061,0,0,0-2.113,4.109H18.1a3.8,3.8,0,0,1,6.91-2.175,4.408,4.408,0,0,0,.226,4.709H4.8A2.537,2.537,0,0,1,2.267,11.136ZM21.273,25.073a3.131,3.131,0,0,0,.632,1.871v4.464H5.434V25.073Zm-13.938-7.6H20a1.9,1.9,0,0,1,1.768,1.219,6.931,6.931,0,0,0-.5,2.581v2.534H5.434V19.371a1.9,1.9,0,0,1,1.9-1.9ZM20,39.01H7.335a1.9,1.9,0,0,1-1.9-1.9V32.675H21.905v4.434a1.9,1.9,0,0,1-1.9,1.9Zm19-24.606a3.8,3.8,0,0,1-3.121,3.74l-2.027.369a2.216,2.216,0,0,0-1.821,2.181v17.05a1.267,1.267,0,0,1-2.534,0V25.706H28.24V37.743a1.267,1.267,0,1,1-2.534,0V19.371H24.439v7.591a1.9,1.9,0,0,1-1.9-1.9v-3.79A5.707,5.707,0,0,1,27.5,15.624L26.935,19.6l1.939,1.939L30.813,19.6l-.575-4.025h4.338a2.537,2.537,0,0,0,2.534-2.534V7.018a.95.95,0,0,1,1.9,0Z" transform="translate(-1 -1)" fill="#707070"/>
      <path id="Path_77" data-name="Path 77" d="M11.9,32.8A1.9,1.9,0,1,0,10,30.9,1.9,1.9,0,0,0,11.9,32.8Zm0-2.534a.633.633,0,1,1-.633.633A.634.634,0,0,1,11.9,30.267Z" transform="translate(-4.299 -11.262)" fill="#707070"/>
      <path id="Path_78" data-name="Path 78" d="M30,29h1.267v3.8H30Z" transform="translate(-11.629 -11.262)" fill="#707070"/>
      <path id="Path_79" data-name="Path 79" d="M26,29h1.267v3.8H26Z" transform="translate(-10.163 -11.262)" fill="#707070"/>
      <path id="Path_80" data-name="Path 80" d="M22,29h1.267v3.8H22Z" transform="translate(-8.697 -11.262)" fill="#707070"/>
      <path id="Path_81" data-name="Path 81" d="M27.9,44.8A1.9,1.9,0,1,0,26,42.9,1.9,1.9,0,0,0,27.9,44.8Zm0-2.534a.633.633,0,1,1-.633.633A.634.634,0,0,1,27.9,42.267Z" transform="translate(-10.163 -15.66)" fill="#707070"/>
      <path id="Path_82" data-name="Path 82" d="M10,41h1.267v3.8H10Z" transform="translate(-4.299 -15.66)" fill="#707070"/>
      <path id="Path_83" data-name="Path 83" d="M14,41h1.267v3.8H14Z" transform="translate(-5.765 -15.66)" fill="#707070"/>
      <path id="Path_84" data-name="Path 84" d="M18,41h1.267v3.8H18Z" transform="translate(-7.231 -15.66)" fill="#707070"/>
      <path id="Path_85" data-name="Path 85" d="M11.9,53a1.9,1.9,0,1,0,1.9,1.9A1.9,1.9,0,0,0,11.9,53Zm0,2.534a.633.633,0,1,1,.633-.633A.634.634,0,0,1,11.9,55.534Z" transform="translate(-4.299 -20.058)" fill="#707070"/>
      <path id="Path_86" data-name="Path 86" d="M30,53h1.267v3.8H30Z" transform="translate(-11.629 -20.058)" fill="#707070"/>
      <path id="Path_87" data-name="Path 87" d="M26,53h1.267v3.8H26Z" transform="translate(-10.163 -20.058)" fill="#707070"/>
      <path id="Path_88" data-name="Path 88" d="M22,53h1.267v3.8H22Z" transform="translate(-8.697 -20.058)" fill="#707070"/>
    </g>
  </g>
</svg>
