<svg xmlns="http://www.w3.org/2000/svg" width="612" height="84" viewBox="0 0 612 84">
  <g id="Group_173" data-name="Group 173" transform="translate(-696 -474)">
    <g id="Group_139" data-name="Group 139" transform="translate(-351 -688)">
      <rect id="Rectangle_8" data-name="Rectangle 8" width="612" height="84" rx="42" transform="translate(1047 1162)" fill="#e8e7e7"/>
      <text id="Personal_Support_to_IBMer_s_family" data-name="Personal Support to IBMer’s family" transform="translate(1143 1216)" fill="#393939" font-size="30" font-family="HelveticaNeue, Helvetica Neue"><tspan x="0" y="0">Personal Support to IBMer’s family</tspan></text>
      <g id="Group_108" data-name="Group 108" transform="translate(1079.968 1187.669)">
        <g id="Group_74" data-name="Group 74" transform="translate(0)">
          <path id="Path_62" data-name="Path 62" d="M33.751,109.049l-1.528-4.586a4.622,4.622,0,0,0-3.558-3.085l-4.412-.8v-.342a6.644,6.644,0,0,0,1.968-1.748h1.333a1.983,1.983,0,0,0,1.981-1.981V88.583a8.583,8.583,0,1,0-17.166,0V93.2a2.645,2.645,0,0,0,2.105,2.586,6.614,6.614,0,0,0,3.176,4.443v.342l-4.413.8a4.621,4.621,0,0,0-3.557,3.085l-.264.793-2.249-2.249a.661.661,0,0,1,0-.934l2.608-2.607L4.881,94.572,1.933,97.519a4.622,4.622,0,0,0,0,6.535l8.923,8.923a4.619,4.619,0,0,0,6.515.02l3.216-2.947-1-1ZM28.214,96.505a.661.661,0,0,1-.66.66H27a6.558,6.558,0,0,0,.43-1.375,2.615,2.615,0,0,0,.785-.312Zm-.66-2.164V92.067a1.309,1.309,0,0,1,0,2.274Zm-13.2,0a1.309,1.309,0,0,1,0-2.274Zm0-4.438v.754a2.619,2.619,0,0,0-.66.273V88.583a7.262,7.262,0,1,1,14.525,0v2.348a2.6,2.6,0,0,0-.66-.273V89.9h-.66a7.264,7.264,0,0,1-5.169-2.141l-.773-.773-.773.773A7.264,7.264,0,0,1,15.01,89.9Zm1.32,4.621V91.2a8.56,8.56,0,0,0,5.282-2.346A8.556,8.556,0,0,0,26.233,91.2v3.326a5.242,5.242,0,0,1-.714,2.641H20.952v1.32h3.482a5.273,5.273,0,0,1-8.764-3.961Zm7.262,6.3v.031l-1.981,1.981-1.981-1.981v-.031a6.6,6.6,0,0,0,3.961,0Zm-12,4.058a3.3,3.3,0,0,1,2.541-2.2l4.615-.838,2.863,2.863,2.863-2.863,4.614.838a3.3,3.3,0,0,1,2.541,2.2l.95,2.848H18.264l-2.572-2.572-2.857,2.585a.674.674,0,0,1-.934,0L10.459,106.3ZM4.88,96.439l3.028,3.028-.717.717L4.163,97.156Zm11.577,15.606a3.3,3.3,0,0,1-4.668,0l-8.923-8.922a3.3,3.3,0,0,1,0-4.668l.363-.363,3.028,3.028-.024.024a1.984,1.984,0,0,0,0,2.8l4.734,4.734a1.97,1.97,0,0,0,1.4.58,1.944,1.944,0,0,0,1.377-.557l.05-.044,3.042,3.042ZM17.81,110.8l-3.035-3.035.872-.788,3.03,3.03Z" transform="translate(-0.58 -80)" fill="#707070"/>
        </g>
      </g>
    </g>
  </g>
</svg>
