<svg xmlns="http://www.w3.org/2000/svg" width="612" height="84" viewBox="0 0 612 84">
  <g id="Group_129" data-name="Group 129" transform="translate(-1047 -2083)">
    <rect id="Rectangle_8" data-name="Rectangle 8" width="612" height="84" rx="42" transform="translate(1047 2083)" fill="#e8e7e7"/>
    <text id="Security_Privacy" data-name="Security &amp; Privacy" transform="translate(1143 2137)" fill="#393939" font-size="30" font-family="HelveticaNeue, Helvetica Neue"><tspan x="0" y="0">Security &amp; Privacy</tspan></text>
    <g id="Group_120" data-name="Group 120" transform="translate(1081.858 2103.44)">
      <g id="Group_42" data-name="Group 42">
        <path id="Path_17" data-name="Path 17" d="M214.615,282.984l-.494,4.442a.783.783,0,0,0,.778.869h3.132a.783.783,0,0,0,.778-.869l-.494-4.442a3.1,3.1,0,0,0,1.281-2.519,3.132,3.132,0,1,0-6.264,0A3.1,3.1,0,0,0,214.615,282.984Zm1.85-4.085a1.561,1.561,0,0,1,.676,2.97.783.783,0,0,0-.437.791l.453,4.069h-1.382l.453-4.069a.783.783,0,0,0-.437-.791,1.561,1.561,0,0,1,.676-2.97Z" transform="translate(-202.371 -256.976)" fill="#707070"/>
        <path id="Path_18" data-name="Path 18" d="M91.4,14.094H89.055V10.962a10.962,10.962,0,1,0-21.923,0v3.132H64.783a.783.783,0,0,0-.783.783V34.451a3.135,3.135,0,0,0,3.132,3.132H89.055a3.135,3.135,0,0,0,3.132-3.132V14.877A.783.783,0,0,0,91.4,14.094ZM68.7,10.962a9.4,9.4,0,0,1,18.791,0v3.132H85.923V10.962a7.83,7.83,0,0,0-15.66,0v3.132H68.7Zm15.66,0v3.132H71.83V10.962a6.264,6.264,0,1,1,12.528,0Zm6.264,23.489a1.568,1.568,0,0,1-1.566,1.566H67.132a1.568,1.568,0,0,1-1.566-1.566V15.66H90.621Z" transform="translate(-64)" fill="#707070"/>
      </g>
    </g>
  </g>
</svg>
