<svg xmlns="http://www.w3.org/2000/svg" width="86" height="85" viewBox="0 0 86 85">
  <g id="Group_163" data-name="Group 163" transform="translate(-558 -1476)">
    <g id="Rectangle_9" data-name="Rectangle 9" transform="translate(558 1476)" fill="#fff" stroke="#707070" stroke-width="1">
      <rect width="86" height="85" rx="42.5" stroke="none"/>
      <rect x="0.5" y="0.5" width="85" height="84" rx="42" fill="none"/>
    </g>
    <g id="_026---Idea" data-name="026---Idea" transform="translate(583.639 1497.624)">
      <path id="Shape" d="M32.722,21.548a1.181,1.181,0,0,0-1.159-.958h-1.14l-.084-.5a1.186,1.186,0,0,0-.986-.978c-.112-.018-.225-.03-.337-.045a3.6,3.6,0,0,0-.449-2.632,2.415,2.415,0,0,0-1.75-3.231,5.022,5.022,0,0,0-4.907-4.1c-.059,0-.112.008-.168.009a2.4,2.4,0,0,0-3.673-.457A4.051,4.051,0,0,0,15.866,8a4.1,4.1,0,0,0-3.222,1.587,2.94,2.94,0,0,0-3.758,2.642A2.429,2.429,0,0,0,7.4,14.467a2.4,2.4,0,0,0,.059.5,4.75,4.75,0,0,0-.566,4.073c-.158.022-.32.041-.472.064a1.188,1.188,0,0,0-.994.977l-.084.5H4.2a1.181,1.181,0,0,0-1.158.956L.456,34.814A1.771,1.771,0,0,0,2.2,36.922H14.507c.489.806,1.974,1.181,3.374,1.181s2.856-.365,3.359-1.181H33.564a1.771,1.771,0,0,0,1.742-2.108ZM9.184,15.535a1.247,1.247,0,0,1,.637-2.315,1.224,1.224,0,0,1,.991.5.59.59,0,0,0,.948-.7,2.385,2.385,0,0,0-1.674-.944,1.794,1.794,0,0,1,1.75-1.421,1.84,1.84,0,0,1,.215.024,3.878,3.878,0,0,0-.124.369.59.59,0,0,0,1.143.3,2.87,2.87,0,0,1,.306-.739,2.915,2.915,0,0,1,2.49-1.421,2.867,2.867,0,0,1,1.564.472,2.4,2.4,0,0,0-.139.774.59.59,0,1,0,1.181,0,1.242,1.242,0,1,1,2.483,0,.59.59,0,1,0,1.181,0c0-.045-.011-.089-.014-.134a3.831,3.831,0,0,1,3.5,2.955,2.4,2.4,0,0,0-.764.381.59.59,0,0,0,.708.944,1.244,1.244,0,0,1,1.825,1.61,1.259,1.259,0,0,1-.559.517.59.59,0,0,0,.251,1.121.583.583,0,0,0,.25-.056,2.424,2.424,0,0,0,.441-.276,2.521,2.521,0,0,1-.5,2.517l-.014.015a2.549,2.549,0,0,1-3.01.552,2.343,2.343,0,0,1-.286-.178,2.01,2.01,0,0,0,.156-2.078.59.59,0,1,0-1.055.531.879.879,0,0,1-.285,1.113.891.891,0,0,1-1.282-.327.59.59,0,0,0-1.056.528A2.046,2.046,0,0,0,22.279,21.3a2.024,2.024,0,0,0,.741-.146,3.494,3.494,0,0,0,.692.472,3.636,3.636,0,0,0,2.726.252,3.762,3.762,0,0,1-2.431,1.49.59.59,0,0,0,.093,1.173.628.628,0,0,0,.094-.007,4.851,4.851,0,0,0,1.047-.306,5.278,5.278,0,0,1,.44,1.013.609.609,0,0,1,.031.191.637.637,0,0,1-.387.586.668.668,0,0,1-.762-.2,3.768,3.768,0,0,0-1.728-1.148c-1.276-.427-1.768-.809-1.977-1.225a5.666,5.666,0,0,0,.9-.189.59.59,0,1,0-.347-1.129,4.473,4.473,0,0,1-1.019.187,4.381,4.381,0,0,1-1.956-.3.59.59,0,0,0-.662.165A2.527,2.527,0,0,1,13.7,19.225a.592.592,0,1,0-1.016-.609,3.686,3.686,0,0,0-.338.76.885.885,0,0,1-.839-.87v-.015a.584.584,0,0,0-.59-.583.6.6,0,0,0-.59.6,2.054,2.054,0,0,0,1.833,2.037,3.706,3.706,0,0,0,.054.59,3.607,3.607,0,0,1-4.081-4.94,2.379,2.379,0,0,0,.439.35.59.59,0,0,0,.609-1.011Zm-2.6,4.741c.272-.04.553-.076.832-.112a4.766,4.766,0,0,0,5.177,2.1,3.7,3.7,0,0,0,5.792.982,5.666,5.666,0,0,0,1.232.223c.285,1.081,1.109,1.737,2.84,2.317a2.616,2.616,0,0,1,1.2.792,1.88,1.88,0,0,0,1.426.67,1.793,1.793,0,0,0,.7-.143,1.817,1.817,0,0,0,1.1-1.671,1.751,1.751,0,0,0-.09-.558,6.452,6.452,0,0,0-.522-1.2,4.976,4.976,0,0,0,1.961-3,3.7,3.7,0,0,0,.34-.476c.2.025.4.048.594.081L31.306,33.1a20.261,20.261,0,0,0-12.834,0V25.708a.59.59,0,0,0-1.181,0V33.1a20.264,20.264,0,0,0-12.834,0ZM1.738,35.525a.586.586,0,0,1-.124-.484L4.2,21.771h.944L3.291,32.9a1.185,1.185,0,0,0,1.523,1.319,19.747,19.747,0,0,1,9.749-.619l-.176,2.14H2.2a.594.594,0,0,1-.46-.217Zm16.143,1.4a3.482,3.482,0,0,1-2.357-.607l.2-2.45a12.614,12.614,0,0,1,1.9.637.6.6,0,0,0,.255.059.587.587,0,0,0,.256-.059,12.573,12.573,0,0,1,1.9-.641l.2,2.453a3.477,3.477,0,0,1-2.357.608Zm16.143-1.4a.594.594,0,0,1-.46.217H21.376L21.2,33.6a19.753,19.753,0,0,1,9.753.624A1.184,1.184,0,0,0,32.47,32.9L30.62,21.771h.944L34.15,35.04a.586.586,0,0,1-.126.485Z" transform="translate(-0.424 -3.278)" fill="#707070"/>
      <path id="Shape-2" data-name="Shape" d="M26.551,21.58a.59.59,0,0,0-.042.833A3.559,3.559,0,0,0,28.4,23.5a1.758,1.758,0,0,1-1.437.741.59.59,0,0,0,0,1.181,2.927,2.927,0,0,0,2.75-1.893A3.562,3.562,0,0,0,32.628,20.7a.59.59,0,1,0-1.159-.222,2.353,2.353,0,0,1-.977,1.5,2.409,2.409,0,0,1-3.107-.354.59.59,0,0,0-.833-.042Z" transform="translate(-11.05 -8.19)" fill="#707070"/>
      <path id="Shape-3" data-name="Shape" d="M22.79,19.305a.59.59,0,0,0,.59-.59,1.535,1.535,0,0,1,1.535-1.535.59.59,0,0,0,0-1.181A2.718,2.718,0,0,0,22.2,18.715a.59.59,0,0,0,.59.59Z" transform="translate(-9.347 -6.556)" fill="#707070"/>
      <path id="Shape-4" data-name="Shape" d="M30.181,1.181V.59A.59.59,0,1,0,29,.59v.59a.59.59,0,1,0,1.181,0Z" transform="translate(-12.133)" fill="#707070"/>
      <path id="Shape-5" data-name="Shape" d="M45.875,7.051l-.59.59a.59.59,0,1,0,.835.835l.59-.59a.59.59,0,1,0-.835-.835Z" transform="translate(-18.732 -2.815)" fill="#707070"/>
      <path id="Shape-6" data-name="Shape" d="M13.058,8.649a.59.59,0,0,0,.417-1.008l-.59-.59a.59.59,0,1,0-.835.835l.59.59A.59.59,0,0,0,13.058,8.649Z" transform="translate(-5.114 -2.815)" fill="#707070"/>
      <path id="Shape-7" data-name="Shape" d="M20.7,3.712a.6.6,0,0,0,.226-.045.59.59,0,0,0,.319-.771l-.678-1.636a.59.59,0,1,0-1.09.452l.678,1.636a.59.59,0,0,0,.545.364Z" transform="translate(-8.209 -0.362)" fill="#707070"/>
      <path id="Shape-8" data-name="Shape" d="M38.913.948a.59.59,0,0,0-.771.319L37.464,2.9a.59.59,0,0,0,.319.772.6.6,0,0,0,.226.045.59.59,0,0,0,.545-.364l.678-1.636a.59.59,0,0,0-.319-.772Z" transform="translate(-15.582 -0.37)" fill="#707070"/>
      <path id="Shape-9" data-name="Shape" d="M49.914,16.292a.59.59,0,0,0,.226-.045l1.636-.678a.59.59,0,0,0-.452-1.091l-1.636.678a.59.59,0,0,0,.226,1.136Z" transform="translate(-20.46 -5.914)" fill="#707070"/>
      <path id="Shape-10" data-name="Shape" d="M7.9,16.246a.59.59,0,1,0,.452-1.091l-1.636-.678a.59.59,0,1,0-.452,1.091Z" transform="translate(-2.669 -5.914)" fill="#707070"/>
    </g>
  </g>
</svg>
