<svg xmlns="http://www.w3.org/2000/svg" width="86" height="85" viewBox="0 0 86 85">
  <g id="Group_162" data-name="Group 162" transform="translate(-557 -1374)">
    <g id="Rectangle_9" data-name="Rectangle 9" transform="translate(557 1374)" fill="#fff" stroke="#707070" stroke-width="1">
      <rect width="86" height="85" rx="42.5" stroke="none"/>
      <rect x="0.5" y="0.5" width="85" height="84" rx="42" fill="none"/>
    </g>
    <g id="Group_61" data-name="Group 61" transform="translate(581.622 1400.817)">
      <g id="Group_60" data-name="Group 60">
        <path id="Path_49" data-name="Path 49" d="M33.206,47.147h-.583V34.913A2.916,2.916,0,0,0,29.711,32H5.243A2.916,2.916,0,0,0,2.33,34.913v8.738H1.748A1.748,1.748,0,0,0,0,45.4V60.546a1.748,1.748,0,0,0,1.748,1.748H23.885a.583.583,0,0,0,.583-.583A2.916,2.916,0,0,0,21.555,58.8H19.807V55.3H26.8v5.243a1.748,1.748,0,0,0,1.748,1.748h4.66a1.748,1.748,0,0,0,1.748-1.748V48.894A1.748,1.748,0,0,0,33.206,47.147Zm-20.39,13.4a.583.583,0,0,1-.583.583H1.748a.583.583,0,0,1-.583-.583v-.583H12.816Zm0-1.748H1.165V45.4a.583.583,0,0,1,.583-.583H12.234a.583.583,0,0,1,.583.583Zm8.738,1.165A1.751,1.751,0,0,1,23.2,61.128H13.874a1.728,1.728,0,0,0,.107-.583v-.583ZM13.981,58.8V55.3h1.165v3.5Zm2.33,0V55.3h2.33v3.5ZM26.8,54.137H13.981v-3.5H26.8Zm0-5.243v.583H13.981V45.4a1.727,1.727,0,0,0-.2-.793c.009-.008.02-.01.029-.019l5.767-5.767A.583.583,0,0,0,18.754,38l-5.767,5.767c-.014.015-.02.033-.032.048a1.726,1.726,0,0,0-.721-.16H3.5V34.913a1.748,1.748,0,0,1,1.748-1.748H29.711a1.748,1.748,0,0,1,1.748,1.748V47.147H28.545A1.748,1.748,0,0,0,26.8,48.894Zm6.991,11.651a.583.583,0,0,1-.583.583h-4.66a.583.583,0,0,1-.583-.583v-.583h5.826Zm0-1.748H27.963v-9.9a.583.583,0,0,1,.583-.583h4.66a.583.583,0,0,1,.583.583Z" transform="translate(0 -32)" fill="#707070"/>
      </g>
    </g>
    <g id="Group_63" data-name="Group 63" transform="translate(585.11 1419.389)">
      <g id="Group_62" data-name="Group 62">
        <path id="Path_50" data-name="Path 50" d="M51.375,287.2a.583.583,0,0,0-.824,0l-2.471,2.471a.583.583,0,0,0,.809.838l.014-.014,2.471-2.471C51.479,287.848,51.27,287.505,51.375,287.2Z" transform="translate(-47.902 -287.034)" fill="#707070"/>
      </g>
    </g>
    <g id="Group_65" data-name="Group 65" transform="translate(588.606 1419.396)">
      <g id="Group_64" data-name="Group 64">
        <path id="Path_51" data-name="Path 51" d="M99.36,287.294a.583.583,0,0,0-.809,0l-2.471,2.471a.583.583,0,0,0,.809.838l.014-.014,2.471-2.471A.583.583,0,0,0,99.36,287.294Z" transform="translate(-95.902 -287.13)" fill="#707070"/>
      </g>
    </g>
    <g id="Group_67" data-name="Group 67" transform="translate(597.985 1406.65)">
      <g id="Group_66" data-name="Group 66">
        <path id="Path_52" data-name="Path 52" d="M231.456,112.262a.583.583,0,0,0-.809,0l-5.767,5.767a.583.583,0,1,0,.809.838l.014-.014,5.767-5.767A.583.583,0,0,0,231.456,112.262Z" transform="translate(-224.702 -112.098)" fill="#707070"/>
      </g>
    </g>
    <g id="Group_69" data-name="Group 69" transform="translate(611.084 1420.973)">
      <g id="Group_68" data-name="Group 68">
        <path id="Path_53" data-name="Path 53" d="M407.225,308.949a.582.582,0,0,0-.809,0l-1.648,1.647a.583.583,0,0,0,.809.838l.014-.014,1.647-1.647A.582.582,0,0,0,407.225,308.949Z" transform="translate(-404.59 -308.786)" fill="#707070"/>
      </g>
    </g>
    <g id="Group_71" data-name="Group 71" transform="translate(598.525 1420.625)">
      <g id="Group_70" data-name="Group 70">
        <path id="Path_54" data-name="Path 54" d="M232.705,304H232.7a.585.585,0,1,0,.006,0Z" transform="translate(-232.12 -304)" fill="#707070"/>
      </g>
    </g>
    <g id="Group_73" data-name="Group 73" transform="translate(597.351 1403.148)">
      <g id="Group_72" data-name="Group 72">
        <path id="Path_55" data-name="Path 55" d="M218.913,64h-2.33a.583.583,0,1,0,0,1.165h2.33a.583.583,0,1,0,0-1.165Z" transform="translate(-216 -64)" fill="#707070"/>
      </g>
    </g>
  </g>
</svg>
