<svg xmlns="http://www.w3.org/2000/svg" width="86" height="85" viewBox="0 0 86 85">
  <g id="Group_160" data-name="Group 160" transform="translate(-557 -1167)">
    <g id="Rectangle_9" data-name="Rectangle 9" transform="translate(557 1167)" fill="#fff" stroke="#707070" stroke-width="1">
      <rect width="86" height="85" rx="42.5" stroke="none"/>
      <rect x="0.5" y="0.5" width="85" height="84" rx="42" fill="none"/>
    </g>
    <g id="Group_75" data-name="Group 75" transform="translate(580.174 1197.669)">
      <g id="Group_74" data-name="Group 74" transform="translate(0)">
        <path id="Path_62" data-name="Path 62" d="M30.545,106.242,29.164,102.1a4.175,4.175,0,0,0-3.214-2.787l-3.986-.725v-.309A6,6,0,0,0,23.742,96.7h1.2a1.791,1.791,0,0,0,1.789-1.789V87.753a7.753,7.753,0,1,0-15.506,0v4.175a2.39,2.39,0,0,0,1.9,2.336A5.975,5.975,0,0,0,16,98.278v.309l-3.986.725A4.174,4.174,0,0,0,8.8,102.1l-.239.716-2.031-2.031a.6.6,0,0,1,0-.844l2.356-2.355L4.465,93.163,1.8,95.825a4.175,4.175,0,0,0,0,5.9l8.06,8.06a4.173,4.173,0,0,0,5.885.018l2.905-2.662-.906-.9Zm-5-11.332a.6.6,0,0,1-.6.6h-.5a5.924,5.924,0,0,0,.389-1.242,2.363,2.363,0,0,0,.709-.282Zm-.6-1.955V90.9a1.182,1.182,0,0,1,0,2.054Zm-11.928,0a1.182,1.182,0,0,1,0-2.054Zm0-4.009v.681a2.366,2.366,0,0,0-.6.247V87.753a6.56,6.56,0,1,1,13.121,0v2.121a2.344,2.344,0,0,0-.6-.247v-.681h-.6a6.562,6.562,0,0,1-4.669-1.934l-.7-.7-.7.7a6.562,6.562,0,0,1-4.669,1.934Zm1.193,4.175v-3A7.732,7.732,0,0,0,18.983,88a7.729,7.729,0,0,0,4.771,2.12v3a4.735,4.735,0,0,1-.645,2.386H18.983V96.7h3.145a4.764,4.764,0,0,1-7.917-3.578Zm6.56,5.689v.028l-1.789,1.789-1.789-1.789V98.81a5.959,5.959,0,0,0,3.578,0Zm-10.84,3.666a2.983,2.983,0,0,1,2.3-1.991l4.169-.757,2.587,2.587,2.586-2.586,4.168.757a2.982,2.982,0,0,1,2.3,1.991l.858,2.572H16.555l-2.323-2.323-2.581,2.335a.609.609,0,0,1-.843,0l-1.3-1.3ZM4.464,94.85,7.2,97.585l-.648.648L3.817,95.5Zm10.458,14.1a2.983,2.983,0,0,1-4.217,0l-8.06-8.06a2.983,2.983,0,0,1,0-4.217l.328-.328,2.735,2.735-.021.021a1.792,1.792,0,0,0,0,2.531l4.277,4.277a1.78,1.78,0,0,0,1.266.524,1.756,1.756,0,0,0,1.243-.5l.045-.04,2.748,2.748Zm1.223-1.121L13.4,105.085l.788-.712,2.737,2.737Z" transform="translate(-0.58 -80)" fill="#707070"/>
      </g>
    </g>
    <g id="Group_77" data-name="Group 77" transform="translate(605.137 1191.705)">
      <g id="Group_76" data-name="Group 76">
        <path id="Path_63" data-name="Path 63" d="M345.567,0h-8.35a1.791,1.791,0,0,0-1.789,1.789V6.56a1.791,1.791,0,0,0,1.789,1.789h1.593l-.617,3.6,5.755-3.6h1.618a1.791,1.791,0,0,0,1.789-1.789V1.789A1.791,1.791,0,0,0,345.567,0Zm.6,6.56a.6.6,0,0,1-.6.6h-1.96l-3.788,2.367.406-2.367h-3.008a.6.6,0,0,1-.6-.6V1.789a.6.6,0,0,1,.6-.6h8.35a.6.6,0,0,1,.6.6Z" transform="translate(-335.428)" fill="#707070"/>
      </g>
    </g>
    <g id="Group_79" data-name="Group 79" transform="translate(607.522 1194.09)">
      <g id="Group_78" data-name="Group 78">
        <rect id="Rectangle_10" data-name="Rectangle 10" width="7.157" height="1.193" fill="#707070"/>
      </g>
    </g>
    <g id="Group_81" data-name="Group 81" transform="translate(607.522 1196.476)">
      <g id="Group_80" data-name="Group 80">
        <rect id="Rectangle_11" data-name="Rectangle 11" width="4.771" height="1.193" fill="#707070"/>
      </g>
    </g>
    <g id="Group_83" data-name="Group 83" transform="translate(613.486 1196.476)">
      <g id="Group_82" data-name="Group 82">
        <rect id="Rectangle_12" data-name="Rectangle 12" width="1.193" height="1.193" fill="#707070"/>
      </g>
    </g>
    <g id="Group_85" data-name="Group 85" transform="translate(580.173 1193.494)">
      <g id="Group_84" data-name="Group 84">
        <path id="Path_64" data-name="Path 64" d="M18.975,24A16.689,16.689,0,0,0,2.725,36.909l-1.13-1.884-1.023.614,2.1,3.493,3.493-2.1-.614-1.023-1.616.97a15.51,15.51,0,0,1,19.638-11.1l.353-1.139A16.688,16.688,0,0,0,18.975,24Z" transform="translate(-0.572 -24)" fill="#707070"/>
      </g>
    </g>
    <g id="Group_87" data-name="Group 87" transform="translate(610.624 1202.814)">
      <g id="Group_86" data-name="Group 86">
        <path id="Path_65" data-name="Path 65" d="M415.187,151.112l-3.493-2.1-2.1,3.494,1.023.614,1.044-1.74a15.52,15.52,0,0,1-2.628,14.775l.926.751a16.7,16.7,0,0,0,2.858-15.826l1.753,1.051Z" transform="translate(-409.036 -149.016)" fill="#707070"/>
      </g>
    </g>
  </g>
</svg>
