<svg xmlns="http://www.w3.org/2000/svg" width="86" height="85" viewBox="0 0 86 85">
  <g id="Group_159" data-name="Group 159" transform="translate(-558 -1062)">
    <g id="Group_157" data-name="Group 157">
      <g id="Group_89" data-name="Group 89" transform="translate(558 1062.004)">
        <g id="Rectangle_9" data-name="Rectangle 9" transform="translate(0 -0.004)" fill="#fff" stroke="#707070" stroke-width="1">
          <rect width="86" height="85" rx="42.5" stroke="none"/>
          <rect x="0.5" y="0.5" width="85" height="84" rx="42" fill="none"/>
        </g>
      </g>
      <g id="_004-scale" data-name="004-scale" transform="translate(584.364 1086.31)">
        <path id="Path_66" data-name="Path 66" d="M33.642,10.993V6.555A.555.555,0,0,0,33.087,6H17.555A.555.555,0,0,0,17,6.555v4.438a.555.555,0,0,0,.555.555H33.087A.555.555,0,0,0,33.642,10.993Zm-1.109-.555H18.109V7.109H32.532Z" transform="translate(-8.679 -3.781)" fill="#707070"/>
        <path id="Path_67" data-name="Path 67" d="M34.729,29.736h-4.54a1.645,1.645,0,0,0,.1-.555V20.306a1.664,1.664,0,0,0-1.664-1.664H20.306V11.985h7.211a1.664,1.664,0,0,0,1.664-1.664V3.664A1.664,1.664,0,0,0,27.517,2H9.766A1.664,1.664,0,0,0,8.1,3.664v6.657a1.664,1.664,0,0,0,1.664,1.664h7.211v6.657H8.657a1.664,1.664,0,0,0-1.664,1.664v8.876a1.645,1.645,0,0,0,.1.555H2.555A.555.555,0,0,0,2,30.291V32.51a.555.555,0,0,0,.555.555H4.219v1.664a.555.555,0,0,0,.555.555H8.1a.555.555,0,0,0,.555-.555V33.065h19.97v1.664a.555.555,0,0,0,.555.555H32.51a.555.555,0,0,0,.555-.555V33.065h1.664a.555.555,0,0,0,.555-.555V30.291A.555.555,0,0,0,34.729,29.736ZM12.54,19.751h1.109V23.4l-.163-.163a.555.555,0,0,0-.784,0l-.163.163Zm2.219,0h2.774a.555.555,0,0,1,.555.555V21.97H14.759Zm7.766,0V21.97H19.2V20.306a.555.555,0,0,1,.555-.555Zm1.109,0h1.109V23.4l-.163-.163a.555.555,0,0,0-.784,0l-.163.163ZM19.2,29.182v-6.1h3.328v1.664a.555.555,0,0,0,.947.392l.717-.717.717.717a.555.555,0,0,0,.947-.392V23.08h3.328v6.1a.555.555,0,0,1-.555.555H19.751A.555.555,0,0,1,19.2,29.182Zm9.985-8.876V21.97H25.853V19.751h2.774A.555.555,0,0,1,29.182,20.306ZM9.211,10.321V3.664a.555.555,0,0,1,.555-.555H27.517a.555.555,0,0,1,.555.555v6.657a.555.555,0,0,1-.555.555H9.766A.555.555,0,0,1,9.211,10.321ZM19.2,11.985v6.657H18.087V11.985ZM8.657,19.751H11.43V21.97H8.1V20.306A.555.555,0,0,1,8.657,19.751ZM8.1,29.182v-6.1H11.43v1.664a.555.555,0,0,0,.947.392l.717-.717.717.717a.555.555,0,0,0,.947-.392V23.08h3.328v6.1a.555.555,0,0,1-.555.555H8.657A.555.555,0,0,1,8.1,29.182Zm-.555,4.993H5.328V33.065H7.547Zm24.408,0H29.736V33.065h2.219Zm2.219-2.219H3.109V30.846H34.174Z" transform="translate(-2 -2)" fill="#707070"/>
        <path id="Path_68" data-name="Path 68" d="M41,10h1.109v1.109H41Z" transform="translate(-19.366 -5.562)" fill="#707070"/>
        <path id="Path_69" data-name="Path 69" d="M37,10h1.109v1.109H37Z" transform="translate(-17.585 -5.562)" fill="#707070"/>
      </g>
    </g>
  </g>
</svg>
