<svg xmlns="http://www.w3.org/2000/svg" width="86" height="85" viewBox="0 0 86 85">
  <g id="Group_168" data-name="Group 168" transform="translate(-557 -1995)">
    <g id="Rectangle_9" data-name="Rectangle 9" transform="translate(557 1995)" fill="#fff" stroke="#707070" stroke-width="1">
      <rect width="86" height="85" rx="42.5" stroke="none"/>
      <rect x="0.5" y="0.5" width="85" height="84" rx="42" fill="none"/>
    </g>
    <g id="Group_118" data-name="Group 118">
      <path id="Path_12" data-name="Path 12" d="M45,43h1.234v1.234H45Z" transform="translate(561.927 1997.581)" fill="#707070"/>
      <path id="Path_13" data-name="Path 13" d="M41,43h1.234v1.234H41Z" transform="translate(563.459 1997.581)" fill="#707070"/>
      <path id="Path_14" data-name="Path 14" d="M37,43h1.234v1.234H37Z" transform="translate(564.991 1997.581)" fill="#707070"/>
      <path id="Path_15" data-name="Path 15" d="M37,39h6.17v1.234H37Z" transform="translate(564.991 1999.112)" fill="#707070"/>
      <path id="Path_16" data-name="Path 16" d="M39.255,9.021a8.021,8.021,0,1,0-14.77,4.319H12.106V29.383a2.443,2.443,0,0,0-1.234.343V15.809a1.853,1.853,0,0,0-1.851-1.851H2.851a1.851,1.851,0,0,0,0,3.7H9.638V31.851a2.463,2.463,0,0,0,1.053,2.016,3.087,3.087,0,1,0,4.485.452H28.164a3.057,3.057,0,0,0-.632,1.851,3.085,3.085,0,1,0,3.085-3.085H12.106a1.234,1.234,0,1,1,0-2.468H31.992a3.1,3.1,0,0,0,2.89-2l1.25-3.334-1.156-.434-1.25,3.334a1.86,1.86,0,0,1-1.734,1.2h-.141V17.011a8.027,8.027,0,0,0,7.4-7.99Zm-36.4,7.4a.617.617,0,0,1,0-1.234h6.17a.617.617,0,0,1,.617.617v.617ZM14.575,36.17a1.851,1.851,0,1,1-1.851-1.851A1.853,1.853,0,0,1,14.575,36.17Zm17.894,0a1.851,1.851,0,1,1-1.851-1.851A1.853,1.853,0,0,1,32.468,36.17ZM29.075,12.758a4.336,4.336,0,0,1-2.16-3.737v-.43l.947-1.421h1.521v3.7h3.7V7.17h1.521l.947,1.421v.43a4.336,4.336,0,0,1-2.16,3.737l-.308.178v2.609a6.649,6.649,0,0,1-3.7,0V12.936ZM31.234,2.234A6.783,6.783,0,0,1,34.319,15.06V13.634a5.572,5.572,0,0,0,2.468-4.612v-.8L35.266,5.936H31.851v3.7H30.617v-3.7H27.2L25.681,8.217v.8a5.572,5.572,0,0,0,2.468,4.612V15.06A6.783,6.783,0,0,1,31.234,2.234ZM19.511,14.575h4.936v2.468H19.511ZM13.34,29.383V14.575h4.936v3.7h7.4V14.8a7.985,7.985,0,0,0,4.936,2.215V29.383Z" transform="translate(578.778 2013.666)" fill="#707070"/>
    </g>
  </g>
</svg>
