<svg xmlns="http://www.w3.org/2000/svg" width="612" height="84" viewBox="0 0 612 84">
  <g id="Group_151" data-name="Group 151" transform="translate(-1706 -1674)">
    <rect id="Rectangle_21" data-name="Rectangle 21" width="612" height="84" rx="42" transform="translate(1706 1674)" fill="#fa4d56"/>
    <text id="Governance" transform="translate(1802 1728)" fill="#fff" font-size="30" font-family="HelveticaNeue, Helvetica Neue"><tspan x="0" y="0">Governance</tspan></text>
    <g id="Group_125" data-name="Group 125" transform="translate(1155 -8)">
      <g id="Group_45" data-name="Group 45" transform="translate(584.088 1705.188)">
        <g id="Group_44" data-name="Group 44" transform="translate(0)">
          <path id="Path_30" data-name="Path 30" d="M34.852,16.364H33.266v-2.74a.721.721,0,0,0-.721-.721H28.269a9.125,9.125,0,0,0-8.224-7.185v-.85h4.373a.721.721,0,0,0,.721-.721V.721A.721.721,0,0,0,24.418,0H19.324A.721.721,0,0,0,18.6.721v5A9.125,9.125,0,0,0,10.424,12.9H6.148a.721.721,0,0,0-.721.721v2.74H3.841a.721.721,0,0,0-.721.721V32.132a.721.721,0,0,0,.721.721H34.852a.721.721,0,0,0,.721-.721V17.085A.721.721,0,0,0,34.852,16.364ZM20.045,2.5V1.442H23.7V3.426H20.045Zm-.7,4.633a7.72,7.72,0,0,1,7.441,5.77H11.906A7.72,7.72,0,0,1,19.347,7.133ZM6.869,14.345H31.824v2.019H6.869ZM20.977,31.411H17.716V26h3.261Zm13.154,0H25.477V22.2a.721.721,0,0,0-1.442,0v9.207H22.419V25.284a.721.721,0,0,0-.721-.721h-4.7a.721.721,0,0,0-.721.721v6.127H14.659V22.2a.721.721,0,0,0-1.442,0v9.207H4.562v-13.6H34.131v13.6Z" transform="translate(-3.12)" fill="#fff"/>
        </g>
      </g>
      <g id="Group_47" data-name="Group 47" transform="translate(605.003 1724.292)">
        <g id="Group_46" data-name="Group 46">
          <path id="Path_31" data-name="Path 31" d="M330.488,298.3a.731.731,0,0,0-.042-.135.708.708,0,0,0-.066-.125.7.7,0,0,0-.2-.2.706.706,0,0,0-.125-.066.731.731,0,0,0-.135-.041.711.711,0,0,0-.281,0,.736.736,0,0,0-.135.041.705.705,0,0,0-.125.066.7.7,0,0,0-.2.2.718.718,0,0,0-.066.125.678.678,0,0,0-.041.135.709.709,0,0,0-.014.141.722.722,0,0,0,.014.141.711.711,0,0,0,.041.135.738.738,0,0,0,.066.124.7.7,0,0,0,.089.11.741.741,0,0,0,.11.09.714.714,0,0,0,.125.066.729.729,0,0,0,.135.041.712.712,0,0,0,.141.014.7.7,0,0,0,.141-.014.734.734,0,0,0,.135-.041.707.707,0,0,0,.125-.066.736.736,0,0,0,.11-.09.693.693,0,0,0,.089-.11.731.731,0,0,0,.066-.124.764.764,0,0,0,.042-.135.723.723,0,0,0,.014-.141A.712.712,0,0,0,330.488,298.3Z" transform="translate(-329.059 -297.717)" fill="#fff"/>
        </g>
      </g>
      <g id="Group_49" data-name="Group 49" transform="translate(594.185 1724.292)">
        <g id="Group_48" data-name="Group 48">
          <path id="Path_32" data-name="Path 32" d="M161.893,298.3a.682.682,0,0,0-.041-.135.707.707,0,0,0-.066-.125.7.7,0,0,0-.2-.2.726.726,0,0,0-.124-.066.757.757,0,0,0-.136-.041.712.712,0,0,0-.281,0,.734.734,0,0,0-.135.041.7.7,0,0,0-.125.066.7.7,0,0,0-.2.2.71.71,0,0,0-.066.125.675.675,0,0,0-.041.135.707.707,0,0,0-.014.141.725.725,0,0,0,.211.51.739.739,0,0,0,.11.09.712.712,0,0,0,.125.066.725.725,0,0,0,.135.041.712.712,0,0,0,.141.014.7.7,0,0,0,.141-.014.758.758,0,0,0,.136-.041.732.732,0,0,0,.124-.066.74.74,0,0,0,.11-.09.725.725,0,0,0,.211-.51A.706.706,0,0,0,161.893,298.3Z" transform="translate(-160.465 -297.717)" fill="#fff"/>
        </g>
      </g>
      <g id="Group_51" data-name="Group 51" transform="translate(587.36 1724.112)">
        <g id="Group_50" data-name="Group 50" transform="translate(0)">
          <path id="Path_33" data-name="Path 33" d="M58.907,294.918H54.832a.721.721,0,0,0-.721.721v3.1a.721.721,0,0,0,.721.721h4.075a.721.721,0,0,0,.721-.721v-3.1A.721.721,0,0,0,58.907,294.918Zm-.721,3.1H55.553V296.36h2.633Z" transform="translate(-54.111 -294.918)" fill="#fff"/>
        </g>
      </g>
      <g id="Group_53" data-name="Group 53" transform="translate(587.36 1730.546)">
        <g id="Group_52" data-name="Group 52" transform="translate(0)">
          <path id="Path_34" data-name="Path 34" d="M58.907,395.174H54.832a.721.721,0,0,0-.721.721V399a.721.721,0,0,0,.721.721h4.075a.721.721,0,0,0,.721-.721v-3.1A.721.721,0,0,0,58.907,395.174Zm-.721,3.1H55.553v-1.659h2.633Z" transform="translate(-54.111 -395.174)" fill="#fff"/>
        </g>
      </g>
      <g id="Group_55" data-name="Group 55" transform="translate(597.556 1724.112)">
        <g id="Group_54" data-name="Group 54">
          <path id="Path_35" data-name="Path 35" d="M217.8,294.918h-4.075a.721.721,0,0,0-.721.721v3.1a.721.721,0,0,0,.721.721H217.8a.721.721,0,0,0,.721-.721v-3.1A.721.721,0,0,0,217.8,294.918Zm-.721,3.1h-2.633V296.36h2.633Z" transform="translate(-213.007 -294.918)" fill="#fff"/>
        </g>
      </g>
      <g id="Group_57" data-name="Group 57" transform="translate(607.752 1724.112)">
        <g id="Group_56" data-name="Group 56">
          <path id="Path_36" data-name="Path 36" d="M376.7,294.918h-4.075a.721.721,0,0,0-.721.721v3.1a.721.721,0,0,0,.721.721H376.7a.721.721,0,0,0,.721-.721v-3.1A.721.721,0,0,0,376.7,294.918Zm-.721,3.1h-2.633V296.36h2.633Z" transform="translate(-371.903 -294.918)" fill="#fff"/>
        </g>
      </g>
      <g id="Group_59" data-name="Group 59" transform="translate(607.752 1730.546)">
        <g id="Group_58" data-name="Group 58">
          <path id="Path_37" data-name="Path 37" d="M376.7,395.174h-4.075a.721.721,0,0,0-.721.721V399a.721.721,0,0,0,.721.721H376.7a.721.721,0,0,0,.721-.721v-3.1A.721.721,0,0,0,376.7,395.174Zm-.721,3.1h-2.633v-1.659h2.633Z" transform="translate(-371.903 -395.174)" fill="#fff"/>
        </g>
      </g>
    </g>
  </g>
</svg>
