<svg xmlns="http://www.w3.org/2000/svg" width="612" height="84" viewBox="0 0 612 84">
  <g id="Group_144" data-name="Group 144" transform="translate(-1706 -957)">
    <rect id="Rectangle_14" data-name="Rectangle 14" width="612" height="84" rx="42" transform="translate(1706 957)" fill="#fa4d56"/>
    <text id="IBM_Internal_Support" data-name="IBM Internal Support" transform="translate(1802 1011)" fill="#fff" font-size="30" font-family="HelveticaNeue, Helvetica Neue"><tspan x="0" y="0">IBM Internal Support</tspan></text>
    <g id="_005-call-center" data-name="005-call-center" transform="translate(1738.227 979.99)">
      <path id="Path_70" data-name="Path 70" d="M32.849,113.392l-4.4-1.015v-1.143a4.675,4.675,0,0,0,1.114-1.3h.628a2.907,2.907,0,0,0,2.9-2.9,2.875,2.875,0,0,0-.581-1.724v-2.34a6.968,6.968,0,0,0-13.935,0v2.34A2.876,2.876,0,0,0,18,107.032a2.907,2.907,0,0,0,2.9,2.9h.628a4.666,4.666,0,0,0,1.114,1.3v1.143l-4.4,1.015a4.044,4.044,0,0,0-.828.3v-3.171a1.744,1.744,0,0,0-1.742-1.742H1.742A1.744,1.744,0,0,0,0,110.516v10.452a1.744,1.744,0,0,0,1.742,1.742H6.387v1.161H5.226v1.161H36v-7.68A4.046,4.046,0,0,0,32.849,113.392Zm-9.756.074,1.416,1.061-1.431.859-.308-1.846Zm1.827,4.6h1.255l.484,5.806H24.437Zm1.37-1.161H24.805l-.333-1,1.077-.646,1.076.646Zm.3-2.376L28,113.465l.409.095-.368,1.841Zm3.606-5.753h-.153a4.618,4.618,0,0,0,.153-1.161V105.29a1.742,1.742,0,1,1,0,3.484ZM25.548,97.161a5.813,5.813,0,0,1,5.806,5.806v1.407a2.874,2.874,0,0,0-1.161-.246v-1.161H29.032v.324a3.4,3.4,0,0,1-1.4.73c.023-.022.048-.041.07-.063l-.821-.821a3.4,3.4,0,0,1-1.572.884c.023-.022.048-.041.07-.063l-.821-.821a3.407,3.407,0,0,1-2.393.991h-.1v-1.161H20.9v1.161a2.874,2.874,0,0,0-1.161.246v-1.407A5.813,5.813,0,0,1,25.548,97.161ZM20.9,108.774a1.742,1.742,0,1,1,0-3.484v2.323a4.618,4.618,0,0,0,.153,1.161Zm1.161-1.161V105.29h.1a4.538,4.538,0,0,0,1.642-.314v.314h.68a4.538,4.538,0,0,0,1.642-.314v.314h.68a4.57,4.57,0,0,0,2.223-.587v2.91a3.467,3.467,0,0,1-.2,1.161H25.548v1.161h2.59a3.479,3.479,0,0,1-6.074-2.323Zm3.484,4.645a4.613,4.613,0,0,0,1.742-.342v.632l-1.742,1.306-1.742-1.306v-.632A4.613,4.613,0,0,0,25.548,112.258Zm-7.04,2.265,3.129-.722.576,3.457,1.24-.744.346,1.039-.526,6.316h-2.95v-6.387H19.161v6.387h-2.9V122.6a1.74,1.74,0,0,0,1.161-1.635v-5.932A2.9,2.9,0,0,1,18.508,114.523Zm-7.476,8.187H15.1v1.161H11.032Zm-9.29-1.161a.581.581,0,0,1-.581-.581V110.516a.581.581,0,0,1,.581-.581H15.677a.581.581,0,0,1,.581.581v10.452a.581.581,0,0,1-.581.581H11.032v-1.161a2.323,2.323,0,0,0-4.645,0v1.161Zm5.806-1.161a1.161,1.161,0,0,1,2.323,0v3.484H7.548Zm27.29,3.484h-2.9v-6.387H30.774v6.387h-2.95l-.526-6.316.346-1.039,1.215.729.684-3.423,3.045.7a2.89,2.89,0,0,1,2.25,2.828Zm0,0" transform="translate(0 -89.032)" fill="#fff"/>
      <path id="Path_71" data-name="Path 71" d="M66.452,41.546a1.739,1.739,0,0,0-1.191-1.652l-2.293-.764v-.758a2.892,2.892,0,0,0,1.161-2.308V34.9a2.9,2.9,0,1,0-5.806,0v1.161a2.89,2.89,0,0,0,1.161,2.308v.758l-2.293.764A1.74,1.74,0,0,0,56,41.546v3.228H66.452ZM59.484,34.9a1.742,1.742,0,1,1,3.484,0v1.161a1.742,1.742,0,0,1-3.484,0Zm5.806,8.71H57.161V41.546a.579.579,0,0,1,.4-.551l3.087-1.028V38.909a2.9,2.9,0,0,0,1.161,0v1.058L64.893,41a.58.58,0,0,1,.4.551Zm0,0" transform="translate(-51.935 -29.677)" fill="#fff"/>
      <path id="Path_72" data-name="Path 72" d="M9.29,18.581A9.29,9.29,0,1,0,0,9.29,9.3,9.3,0,0,0,9.29,18.581Zm0-17.419A8.129,8.129,0,1,1,1.161,9.29,8.138,8.138,0,0,1,9.29,1.161Zm0,0" fill="#fff"/>
      <path id="Path_73" data-name="Path 73" d="M296,48h1.161v1.161H296Zm0,0" transform="translate(-274.516 -44.516)" fill="#fff"/>
      <path id="Path_74" data-name="Path 74" d="M344,48h1.161v1.161H344Zm0,0" transform="translate(-319.032 -44.516)" fill="#fff"/>
      <path id="Path_75" data-name="Path 75" d="M392,48h1.161v1.161H392Zm0,0" transform="translate(-363.548 -44.516)" fill="#fff"/>
    </g>
  </g>
</svg>
