<svg xmlns="http://www.w3.org/2000/svg" width="612" height="84" viewBox="0 0 612 84">
  <g id="Group_148" data-name="Group 148" transform="translate(-1706 -1365)">
    <rect id="Rectangle_18" data-name="Rectangle 18" width="612" height="84" rx="42" transform="translate(1706 1365)" fill="#fa4d56"/>
    <text id="Mobility" transform="translate(1802 1419)" fill="#fff" font-size="30" font-family="HelveticaNeue, Helvetica Neue"><tspan x="0" y="0">Mobility</tspan></text>
    <g id="Group_123" data-name="Group 123" transform="translate(1739.622 1392.817)">
      <g id="Group_60" data-name="Group 60">
        <path id="Path_49" data-name="Path 49" d="M33.206,47.147h-.583V34.913A2.916,2.916,0,0,0,29.711,32H5.243A2.916,2.916,0,0,0,2.33,34.913v8.738H1.748A1.748,1.748,0,0,0,0,45.4V60.546a1.748,1.748,0,0,0,1.748,1.748H23.885a.583.583,0,0,0,.583-.583A2.916,2.916,0,0,0,21.555,58.8H19.807V55.3H26.8v5.243a1.748,1.748,0,0,0,1.748,1.748h4.66a1.748,1.748,0,0,0,1.748-1.748V48.894A1.748,1.748,0,0,0,33.206,47.147Zm-20.39,13.4a.583.583,0,0,1-.583.583H1.748a.583.583,0,0,1-.583-.583v-.583H12.816Zm0-1.748H1.165V45.4a.583.583,0,0,1,.583-.583H12.234a.583.583,0,0,1,.583.583Zm8.738,1.165A1.751,1.751,0,0,1,23.2,61.128H13.874a1.728,1.728,0,0,0,.107-.583v-.583ZM13.981,58.8V55.3h1.165v3.5Zm2.33,0V55.3h2.33v3.5ZM26.8,54.137H13.981v-3.5H26.8Zm0-5.243v.583H13.981V45.4a1.727,1.727,0,0,0-.2-.793c.009-.008.02-.01.029-.019l5.767-5.767A.583.583,0,0,0,18.754,38l-5.767,5.767c-.014.015-.02.033-.032.048a1.726,1.726,0,0,0-.721-.16H3.5V34.913a1.748,1.748,0,0,1,1.748-1.748H29.711a1.748,1.748,0,0,1,1.748,1.748V47.147H28.545A1.748,1.748,0,0,0,26.8,48.894Zm6.991,11.651a.583.583,0,0,1-.583.583h-4.66a.583.583,0,0,1-.583-.583v-.583h5.826Zm0-1.748H27.963v-9.9a.583.583,0,0,1,.583-.583h4.66a.583.583,0,0,1,.583.583Z" transform="translate(0 -32)" fill="#fff"/>
      </g>
    </g>
  </g>
</svg>
