<svg xmlns="http://www.w3.org/2000/svg" width="612" height="84" viewBox="0 0 612 84">
  <g id="Group_152" data-name="Group 152" transform="translate(-1706 -1773)">
    <rect id="Rectangle_22" data-name="Rectangle 22" width="612" height="84" rx="42" transform="translate(1706 1773)" fill="#fa4d56"/>
    <text id="Regulations_Compliance" data-name="Regulations &amp; Compliance" transform="translate(1802 1827)" fill="#fff" font-size="30" font-family="HelveticaNeue, Helvetica Neue"><tspan x="0" y="0">Regulations &amp; Compliance</tspan></text>
    <g id="Group_126" data-name="Group 126" transform="translate(1155 -14)">
      <path id="Path_19" data-name="Path 19" d="M266.6,50.293a3.169,3.169,0,1,0-3.168,3.169A3.172,3.172,0,0,0,266.6,50.293Zm-5.358,0a2.189,2.189,0,1,1,2.189,2.189A2.192,2.192,0,0,1,261.241,50.293Zm0,0" transform="translate(342.324 1768.625)" fill="#fff"/>
      <path id="Path_20" data-name="Path 20" d="M200.731,55.9a.49.49,0,0,0,0-.98h-1.288a.49.49,0,0,0,0,.98Zm0,0" transform="translate(399.626 1761.342)" fill="#fff"/>
      <path id="Path_21" data-name="Path 21" d="M51.271,55.9h6.508a.49.49,0,1,0,0-.98H51.271a.49.49,0,1,0,0,.98Zm0,0" transform="translate(538.117 1761.342)" fill="#fff"/>
      <path id="Path_22" data-name="Path 22" d="M51.271,122.3h1.678a.49.49,0,1,0,0-.98H51.271a.49.49,0,1,0,0,.98Zm0,0" transform="translate(538.117 1699.274)" fill="#fff"/>
      <path id="Path_23" data-name="Path 23" d="M125.525,121.324a.49.49,0,1,0,0,.98h1.061a.49.49,0,0,0,0-.98Zm0,0" transform="translate(468.715 1699.274)" fill="#fff"/>
      <path id="Path_24" data-name="Path 24" d="M51.271,89.1H62.24a.49.49,0,1,0,0-.98H51.271a.49.49,0,1,0,0,.98Zm0,0" transform="translate(538.117 1730.308)" fill="#fff"/>
      <path id="Path_25" data-name="Path 25" d="M52.555,176.587H69.032a1.774,1.774,0,0,0,0-3.547H52.555a1.774,1.774,0,1,0,0,3.547Zm0-2.568H69.032a.794.794,0,0,1,0,1.588H52.555a.794.794,0,1,1,0-1.588Zm0,0" transform="translate(538.117 1650.938)" fill="#fff"/>
      <path id="Path_26" data-name="Path 26" d="M52.555,245.348H69.032a1.774,1.774,0,0,0,0-3.547H52.555a1.774,1.774,0,1,0,0,3.547Zm0-2.568H69.032a.794.794,0,0,1,0,1.588H52.555a.794.794,0,1,1,0-1.588Zm0,0" transform="translate(538.117 1586.67)" fill="#fff"/>
      <path id="Path_27" data-name="Path 27" d="M52.555,314.11H69.032a1.774,1.774,0,0,0,0-3.547H52.555a1.774,1.774,0,1,0,0,3.547Zm0-2.568H69.032a.794.794,0,0,1,0,1.588H52.555a.794.794,0,1,1,0-1.588Zm0,0" transform="translate(538.117 1522.401)" fill="#fff"/>
      <path id="Path_28" data-name="Path 28" d="M52.555,382.872H64.113a1.774,1.774,0,1,0,0-3.547H52.555a1.774,1.774,0,1,0,0,3.547Zm0-2.568H64.113a.794.794,0,0,1,0,1.588H52.555a.794.794,0,1,1,0-1.588Zm0,0" transform="translate(538.117 1458.132)" fill="#fff"/>
      <path id="Path_29" data-name="Path 29" d="M31.921,26.182H30.07V24.547a1.025,1.025,0,0,0-.612-.936l.718-3.29a3.127,3.127,0,0,0-3.515-3.763V1.627A1.629,1.629,0,0,0,25.033,0H1.627A1.629,1.629,0,0,0,0,1.627V6.882a.49.49,0,0,0,.98,0V1.627A.648.648,0,0,1,1.627.98H25.033a.648.648,0,0,1,.648.648V16.873a3.127,3.127,0,0,0-1.655,2.292.49.49,0,1,0,.968.153,2.15,2.15,0,1,1,4.225.794l-.744,3.412H25.761l-.457-2.1a.49.49,0,1,0-.957.209l.431,1.974a1.024,1.024,0,0,0-.612.936v1.635H22.314a1.535,1.535,0,0,0-1.533,1.533v1.248A1.535,1.535,0,0,0,22.314,30.5h.026l.3,1.32a2.1,2.1,0,0,0,.265.648H1.627a.648.648,0,0,1-.648-.648V9.129a.49.49,0,0,0-.98,0V31.815a1.629,1.629,0,0,0,1.627,1.627l27.943-.006A2.067,2.067,0,0,0,31.6,31.815l.3-1.32h.026a1.535,1.535,0,0,0,1.533-1.533V27.714A1.535,1.535,0,0,0,31.921,26.182Zm-6.776-1.635a.044.044,0,0,1,.044-.044h3.859a.044.044,0,0,1,.043.044v1.635H25.145Zm5.5,7.053a1.092,1.092,0,0,1-1.072.857H24.665a1.092,1.092,0,0,1-1.072-.857l-.249-1.1H30.89Zm1.832-2.637a.554.554,0,0,1-.553.553H22.314a.554.554,0,0,1-.553-.553V27.714a.554.554,0,0,1,.553-.553h9.606a.554.554,0,0,1,.553.553Zm0,0" transform="translate(585.58 1812.671)" fill="#fff"/>
    </g>
  </g>
</svg>
