<svg xmlns="http://www.w3.org/2000/svg" width="612" height="84" viewBox="0 0 612 84">
  <g id="Group_153" data-name="Group 153" transform="translate(-1706 -1878)">
    <rect id="Rectangle_23" data-name="Rectangle 23" width="612" height="84" rx="42" transform="translate(1706 1878)" fill="#fa4d56"/>
    <text id="Ways_of_Working" data-name="Ways of Working" transform="translate(1802 1932)" fill="#fff" font-size="30" font-family="HelveticaNeue, Helvetica Neue"><tspan x="0" y="0">Ways of Working</tspan></text>
    <g id="XMLID_636_" transform="translate(1738.285 1901.136)">
      <path id="XMLID_1699_" d="M6.462,12.923A6.462,6.462,0,1,0,0,6.462,6.469,6.469,0,0,0,6.462,12.923Zm0-11.527A5.065,5.065,0,1,1,1.4,6.462,5.071,5.071,0,0,1,6.462,1.4Z" fill="#fff"/>
      <path id="XMLID_1701_" d="M83.862,39.622a.7.7,0,1,0,.986-.989l-.838-.836V34.7a.7.7,0,1,0-1.4,0v3.39a.7.7,0,0,0,.205.495Z" transform="translate(-76.845 -31.626)" fill="#fff"/>
      <path id="XMLID_1706_" d="M35.051,150.549h-4.3a4.123,4.123,0,0,0-2.491-1.657l-3.07-.671a4.711,4.711,0,0,0,2.084-3.909v-2.671a4.712,4.712,0,1,0-9.424,0v2.671a4.711,4.711,0,0,0,2.079,3.906l-3.068.673c-.131.029-.26.064-.386.1v-5.778a.7.7,0,0,0-.7-.7H11.032a.7.7,0,0,0,0,1.4h4.05v9.775H10.334V150.2a2.095,2.095,0,0,0-4.189,0v3.491H1.4v-9.775h4.05a.7.7,0,0,0,0-1.4H.7a.7.7,0,0,0-.7.7v11.172a.7.7,0,0,0,.7.7H6.144v1.327h-.07a2.167,2.167,0,0,0-2.164,2.164v.349H.7a.7.7,0,0,0-.7.7v2.793a.7.7,0,0,0,.7.7H35.051a.7.7,0,0,0,.7-.7V151.247A.7.7,0,0,0,35.051,150.549ZM30.8,158.928H26.812v-1.4h7.541v1.4Zm3.548-2.793H26.812v-1.4h7.541Zm0-2.793H26.812v-1.4h7.541Zm-15.1-11.7a3.316,3.316,0,0,1,6.621-.26l-1.623-.954a.7.7,0,0,0-.889.154,3.7,3.7,0,0,1-2.845,1.328H19.249v-.268Zm0,1.665h1.264a5.094,5.094,0,0,0,3.505-1.392l1.861,1.094v1.305a3.316,3.316,0,0,1-6.631,0v-1.007Zm4.409,5.589-1.1,2.953-1.106-2.958a4.688,4.688,0,0,0,2.21.005Zm-7.879,6.193a.7.7,0,0,0,.7-.7v-3.884a2.716,2.716,0,0,1,.686-.251l3.054-.67,1.683,4.5a.7.7,0,0,0,1.308,0l1.683-4.5,3.073.672a2.717,2.717,0,0,1,.761.292H26.113a.7.7,0,0,0-.7.7v7.68H15.024v-3.84h.756Zm-2.152,0v3.84h-1.06v-.349a2.167,2.167,0,0,0-2.164-2.164h-.07v-1.327ZM7.541,150.2a.7.7,0,0,1,1.4,0v6.214h-1.4Zm-2.234,8.379a.769.769,0,0,1,.768-.768H10.4a.769.769,0,0,1,.768.768v.349H5.306Zm29.046,3.142H1.4v-1.4H34.352Z" transform="translate(0 -127.368)" fill="#fff"/>
      <path id="XMLID_1768_" d="M108.2,217.2a.7.7,0,1,0,.494-.2A.7.7,0,0,0,108.2,217.2Z" transform="translate(-100.459 -201.849)" fill="#fff"/>
    </g>
  </g>
</svg>
